# xmcd
#
# Track frame offsets:
#	150
#	13482
#	29199
#	47284
#	64920
#	79622
#	94354
#	113365
#	131107
#	144214
#
# Disc length: 2197 seconds
#
# Revision: 0
# Processed by: cddbd v1.5.2PL0 Copyright (c) Steve Scherf et al.
# Submitted via: EZCDAudioConverter 1.1.0.1
#
DISCID=8508930a
DTITLE=Jake McVey - Anything Is Possible
DYEAR=2009
DGENRE=Country
TTITLE0=Any Road Will Get You There
TTITLE1=Anything Is Possible
TTITLE2=Redlined And Wasted
TTITLE3=Times Like These
TTITLE4=Carry On
TTITLE5=My Time To Shine
TTITLE6=I Pray For You
TTITLE7=Maybe's All I Got
TTITLE8=I Wanna Live Like That
TTITLE9=Cocaine, Whiskey, And Wine
EXTD=
EXTT0=
EXTT1=
EXTT2=
EXTT3=
EXTT4=
EXTT5=
EXTT6=
EXTT7=
EXTT8=
EXTT9=
PLAYORDER=
